<svg xmlns="http://www.w3.org/2000/svg" viewBox="0 0 240 336" width="240" height="336">
  <rect x="0" y="0" width="240" height="336" rx="14" fill="#fffdfa"></rect>
  <rect x="1.25" y="1.25" width="237.5" height="333.5" rx="13" fill="none" stroke="#000" stroke-opacity="0.10" stroke-width="1.5"></rect>
  <g fill="#1c1c1c">
<g><text x="26" y="50" font-family="Helvetica Neue,Arial,sans-serif" font-weight="700" font-size="50" text-anchor="middle">3</text><g transform="translate(26,80) scale(0.3171)"><circle cx="0" cy="-18" r="16"></circle><circle cx="-18" cy="7" r="16"></circle><circle cx="18" cy="7" r="16"></circle><path d="M-3,2 C-7,20 -13,34 -24,46 L24,46 C13,34 7,20 3,2 Z"></path></g></g><g transform="rotate(180 120 168)"><text x="26" y="50" font-family="Helvetica Neue,Arial,sans-serif" font-weight="700" font-size="50" text-anchor="middle">3</text><g transform="translate(26,80) scale(0.3171)"><circle cx="0" cy="-18" r="16"></circle><circle cx="-18" cy="7" r="16"></circle><circle cx="18" cy="7" r="16"></circle><path d="M-3,2 C-7,20 -13,34 -24,46 L24,46 C13,34 7,20 3,2 Z"></path></g></g>
<g transform="translate(120,74) scale(0.5122)"><circle cx="0" cy="-18" r="16"></circle><circle cx="-18" cy="7" r="16"></circle><circle cx="18" cy="7" r="16"></circle><path d="M-3,2 C-7,20 -13,34 -24,46 L24,46 C13,34 7,20 3,2 Z"></path></g><g transform="translate(120,168) scale(0.5122)"><circle cx="0" cy="-18" r="16"></circle><circle cx="-18" cy="7" r="16"></circle><circle cx="18" cy="7" r="16"></circle><path d="M-3,2 C-7,20 -13,34 -24,46 L24,46 C13,34 7,20 3,2 Z"></path></g><g transform="translate(120,262) scale(0.5122) rotate(180)"><circle cx="0" cy="-18" r="16"></circle><circle cx="-18" cy="7" r="16"></circle><circle cx="18" cy="7" r="16"></circle><path d="M-3,2 C-7,20 -13,34 -24,46 L24,46 C13,34 7,20 3,2 Z"></path></g>
  </g>
</svg>