<svg xmlns="http://www.w3.org/2000/svg" viewBox="0 0 240 336" width="240" height="336">
  <rect x="0" y="0" width="240" height="336" rx="14" fill="#fffdfa"></rect>
  <rect x="1.25" y="1.25" width="237.5" height="333.5" rx="13" fill="none" stroke="#000" stroke-opacity="0.10" stroke-width="1.5"></rect>
  <g fill="#c8102e">
<g><text x="26" y="50" font-family="Helvetica Neue,Arial,sans-serif" font-weight="700" font-size="50" text-anchor="middle">J</text><g transform="translate(26,80) scale(0.3171)"><path d="M0,-22 C-6,-36 -34,-36 -34,-12 C-34,6 -14,20 0,34 C14,20 34,6 34,-12 C34,-36 6,-36 0,-22 Z"></path></g></g><g transform="rotate(180 120 168)"><text x="26" y="50" font-family="Helvetica Neue,Arial,sans-serif" font-weight="700" font-size="50" text-anchor="middle">J</text><g transform="translate(26,80) scale(0.3171)"><path d="M0,-22 C-6,-36 -34,-36 -34,-12 C-34,6 -14,20 0,34 C14,20 34,6 34,-12 C34,-36 6,-36 0,-22 Z"></path></g></g>
<rect x="48" y="60" width="144" height="216" rx="12" fill="none" stroke="#c8102e" stroke-width="2.6"></rect><rect x="56" y="68" width="128" height="200" rx="8" fill="none" stroke="#c8102e" stroke-width="1" opacity="0.45"></rect><text x="120" y="176" font-family="Georgia,&#39;Times New Roman&#39;,serif" font-weight="700" font-size="118" text-anchor="middle" dominant-baseline="middle">J</text><g transform="translate(120,96) scale(0.3659)"><path d="M0,-22 C-6,-36 -34,-36 -34,-12 C-34,6 -14,20 0,34 C14,20 34,6 34,-12 C34,-36 6,-36 0,-22 Z"></path></g><g transform="translate(120,240) scale(0.3659) rotate(180)"><path d="M0,-22 C-6,-36 -34,-36 -34,-12 C-34,6 -14,20 0,34 C14,20 34,6 34,-12 C34,-36 6,-36 0,-22 Z"></path></g>
  </g>
</svg>